<svg width="32" height="32" viewBox="0 0 32 32" xmlns="http://www.w3.org/2000/svg">
  <rect width="32" height="32" fill="#06b6d4" rx="6"/>
  <path d="M16 6c-1.5 0-3 1-4 2.5-1 1-1.5 2-2 3.5-.5 1.5-.5 3 0 4.5.5 1.5 1.5 2.5 2.5 3.5 1 1 2 1.5 3.5 2 1.5.5 3 .5 4-.5.5-.5 1-1.5 1-2.5.5-1 .5-2 0-3-.5-1-1-2-1.5-3-.5-1-1-1.5-1.5-2-.5-.5-1-1-2-1z" fill="white"/>
  <circle cx="18" cy="8" r="1.5" fill="white"/>
  <circle cx="20" cy="10" r="0.8" fill="white"/>
  <circle cx="22" cy="12" r="0.6" fill="white"/>
</svg>